<?xml version="1.0" encoding="UTF-8"?>
<svg clip-rule="evenodd" stroke-linecap="round" stroke-linejoin="round" stroke-miterlimit="10" version="1.1" viewBox="0 0 1024 1024" xml:space="preserve" xmlns="http://www.w3.org/2000/svg">
<defs>
<linearGradient id="LinearGradient" x1="52.587" x2="965.6" y1="517.36" y2="517.36" gradientTransform="matrix(4.7573e-7 -1.1216 1.1322 4.7127e-7 -73.738 1083)" gradientUnits="userSpaceOnUse">
<stop stop-color="#536dfe" offset=".0062708"/>
<stop stop-color="#6479eb" offset="1"/>
</linearGradient>
<clipPath id="TextBounds">
<rect x="117.98" y="164.74" width="788.04" height="723.28"/>
</clipPath>
</defs>
<clipPath id="ArtboardFrame">
<rect width="1024" height="1024"/>
</clipPath>
<g id="bg" clip-path="url(#ArtboardFrame)">
<path d="m5.6843e-14 1024 4.3435e-4 -1024 1024 4.2624e-4v1024h-1024z" fill="url(#LinearGradient)" stroke="#27aae1" stroke-linecap="butt" stroke-linejoin="miter" stroke-width=".5"/>
</g>
<g id="text">
<path d="m508.5 537.08c23.106 56.714 50.412 104.32 82.62 144.24 49.712 60.915 113.43 107.13 208.65 148.44 11.202-28.007 23.806-48.312 46.211-75.619-64.416-21.705-103.62-42.01-153.34-79.119 32.208-25.206 62.315-52.512 82.62-72.817l16.104-16.104-70.017-43.411c-16.804 23.106-46.211 53.213-81.92 80.52-25.906-31.508-41.31-56.014-54.613-86.121h163.14c31.508 0 56.714 1.4 80.52 4.201v-75.618c-18.905 3.5-40.61 4.201-80.52 4.201h-202.35v-44.811h147.74c40.61 0 57.414 0.7 77.719 2.8v-70.017c-18.905 2.101-35.709 2.801-77.719 2.801h-147.74v-42.71h180.64c37.809 0 59.514 0.7 78.419 3.501v-73.518c-21.005 2.8-44.811 4.201-83.32 4.201h-175.74c0-31.508 0.7-42.711 4.201-60.215h-86.121c3.501 16.804 4.201 30.107 4.201 60.215h-164.54c-35.708 0-60.914-1.401-81.919-4.201v73.518c18.904-2.801 39.909-3.501 78.419-3.501h168.04v42.71h-136.53c-40.61 0-57.414-0.7-77.018-2.801v70.017c20.304-2.1 37.109-2.8 77.018-2.8h136.53v44.811h-191.85c-41.31 0-60.215-0.701-81.22-4.201v75.618c23.806-2.801 49.712-4.201 81.92-4.201h132.33c-58.814 52.513-132.33 90.322-225.46 115.53 20.305 26.606 30.808 44.811 43.411 74.918 65.816-27.307 102.22-45.511 149.14-77.019v95.924c-44.111 5.601-68.617 7.701-96.623 8.402l16.804 81.92c6.301-1.401 19.604-4.201 33.608-7.002 16.104-2.101 16.104-2.101 32.908-4.901 38.509-6.302 41.31-7.002 88.921-16.104 77.719-16.104 93.823-19.605 146.34-34.309v-73.517c-61.615 16.103-91.022 23.105-144.94 32.908v-144.24c28.007-25.907 34.308-32.208 51.112-52.513h4.201z" clip-path="url(#TextBounds)" fill="#fff"/>
</g>
</svg>
